# Blender 4.3.1
# www.blender.org
mtllib mars_sky.mtl
o Sphere
v 83.335564 0.000000 124.720444
v 124.720482 0.000000 83.335541
v 147.117844 0.000000 29.263548
v 150.000046 0.000000 0.000000
v 147.117844 0.000000 -29.263548
v 124.720482 0.000000 -83.335541
v 28.701267 -5.709039 147.117798
v 56.299564 -11.198684 138.581940
v 81.734299 -16.257967 124.720444
v 104.028023 -20.692467 106.066017
v 122.324005 -24.331766 83.335541
v 135.919159 -27.036009 57.402519
v 144.291000 -28.701277 29.263548
v 147.117844 -29.263567 0.000000
v 144.291000 -28.701277 -29.263548
v 135.919159 -27.036009 -57.402519
v 122.324005 -24.331766 -83.335541
v 104.028023 -20.692467 -106.066017
v 81.734299 -16.257967 -124.720444
v 56.299564 -11.198684 -138.581940
v 28.701267 -5.709039 -147.117798
v 27.036001 -11.198682 147.117798
v 53.033028 -21.967005 138.581940
v 76.992012 -31.891150 124.720444
v 97.992249 -40.589733 106.066017
v 115.226685 -47.728477 83.335541
v 128.033051 -53.033035 57.402519
v 135.919159 -56.299576 29.263548
v 138.581970 -57.402554 0.000000
v 135.919159 -56.299576 -29.263548
v 128.033051 -53.033035 -57.402519
v 115.226685 -47.728477 -83.335541
v 97.992249 -40.589733 -106.066017
v 76.992012 -31.891150 -124.720444
v 53.033028 -21.967005 -138.581940
v 27.036001 -11.198682 -147.117798
v 24.331757 -16.257965 147.117798
v 47.728462 -31.891150 138.581940
v 69.290977 -46.298771 124.720444
v 88.190689 -58.927158 106.066017
v 103.701271 -69.291000 83.335541
v 115.226692 -76.992035 57.402519
v 122.324005 -81.734322 29.263548
v 124.720467 -83.335594 0.000000
v 122.324005 -81.734322 -29.263548
v 115.226692 -76.992035 -57.402519
v 103.701271 -69.291000 -83.335541
v 88.190689 -58.927158 -106.066017
v 69.290977 -46.298771 -124.720444
v 47.728462 -31.891150 -138.581940
v 24.331757 -16.257965 -147.117798
v 20.692455 -20.692465 147.117798
v 40.589718 -40.589733 138.581940
v 58.927128 -58.927155 124.720444
v 75.000023 -75.000046 106.066017
v 88.190681 -88.190712 83.335541
v 97.992249 -97.992271 57.402519
v 104.028008 -104.028053 29.263548
v 106.066017 -106.066078 0.000000
v 104.028008 -104.028053 -29.263548
v 97.992249 -97.992271 -57.402519
v 88.190681 -88.190712 -83.335541
v 75.000023 -75.000046 -106.066017
v 58.927128 -58.927155 -124.720444
v 40.589718 -40.589733 -138.581940
v 20.692455 -20.692465 -147.117798
v 16.257957 -24.331764 147.117798
v 31.891136 -47.728477 138.581940
v 46.298744 -69.291000 124.720444
v 58.927139 -88.190720 106.066017
v 69.290970 -103.701309 83.335541
v 76.992020 -115.226715 57.402519
v 81.734283 -122.324043 29.263548
v 83.335526 -124.720512 0.000000
v 81.734283 -122.324043 -29.263548
v 76.992020 -115.226715 -57.402519
v 69.290970 -103.701309 -83.335541
v 58.927139 -88.190720 -106.066017
v 46.298744 -69.291000 -124.720444
v 31.891136 -47.728477 -138.581940
v 16.257957 -24.331764 -147.117798
v 0.000000 0.000000 150.000000
v 11.198676 -27.036005 147.117798
v 21.966993 -53.033035 138.581940
v 31.891129 -76.992035 124.720444
v 40.589722 -97.992279 106.066017
v 47.728443 -115.226715 83.335541
v 53.033028 -128.033081 57.402519
v 56.299541 -135.919189 29.263548
v 57.402504 -138.582001 0.000000
v 56.299541 -135.919189 -29.263548
v 53.033028 -128.033081 -57.402519
v 47.728443 -115.226715 -83.335541
v 40.589722 -97.992279 -106.066017
v 31.891129 -76.992035 -124.720444
v 21.966993 -53.033035 -138.581940
v 11.198676 -27.036005 -147.117798
v 5.709034 -28.701269 147.117798
v 11.198676 -56.299572 138.581940
v 16.257952 -81.734314 124.720444
v 20.692463 -104.028053 106.066017
v 24.331743 -122.324028 83.335541
v 27.036007 -135.919189 57.402519
v 28.701252 -144.291031 29.263548
v 29.263531 -147.117859 0.000000
v 28.701252 -144.291031 -29.263548
v 27.036007 -135.919189 -57.402519
v 24.331743 -122.324028 -83.335541
v 20.692463 -104.028053 -106.066017
v 16.257952 -81.734314 -124.720444
v 11.198676 -56.299572 -138.581940
v 5.709034 -28.701269 -147.117798
v -0.000002 -29.263559 147.117798
v -0.000003 -57.402550 138.581940
v -0.000008 -83.335571 124.720444
v 0.000002 -106.066071 106.066017
v -0.000013 -124.720490 83.335541
v 0.000007 -138.582001 57.402519
v -0.000013 -147.117874 29.263548
v -0.000025 -150.000046 0.000000
v -0.000013 -147.117874 -29.263548
v 0.000007 -138.582001 -57.402519
v -0.000013 -124.720490 -83.335541
v 0.000002 -106.066071 -106.066017
v -0.000008 -83.335571 -124.720444
v -0.000003 -57.402550 -138.581940
v -0.000002 -29.263559 -147.117798
v -5.709037 -28.701267 147.117798
v -11.198682 -56.299572 138.581940
v -16.257967 -81.734306 124.720444
v -20.692455 -104.028038 106.066017
v -24.331768 -122.324013 83.335541
v -27.035994 -135.919189 57.402519
v -28.701275 -144.291031 29.263548
v -29.263573 -147.117828 0.000000
v -28.701275 -144.291031 -29.263548
v -27.035994 -135.919189 -57.402519
v -24.331768 -122.324013 -83.335541
v -20.692455 -104.028038 -106.066017
v -16.257967 -81.734306 -124.720444
v -11.198682 -56.299572 -138.581940
v -5.709037 -28.701267 -147.117798
v -11.198677 -27.035999 147.117798
v -21.966999 -53.033035 138.581940
v -31.891140 -76.992020 124.720444
v -40.589714 -97.992271 106.066017
v -47.728462 -115.226700 83.335541
v -53.033009 -128.033081 57.402519
v -56.299564 -135.919159 29.263548
v -57.402534 -138.581955 0.000000
v -56.299564 -135.919159 -29.263548
v -53.033009 -128.033081 -57.402519
v -47.728462 -115.226700 -83.335541
v -40.589714 -97.992271 -106.066017
v -31.891140 -76.992020 -124.720444
v -21.966999 -53.033035 -138.581940
v -11.198677 -27.035999 -147.117798
v -16.257956 -24.331755 147.117798
v -31.891138 -47.728470 138.581940
v -46.298752 -69.290977 124.720444
v -58.927132 -88.190712 106.066017
v -69.290977 -103.701279 83.335541
v -76.992004 -115.226715 57.402519
v -81.734291 -122.324013 29.263548
v -83.335556 -124.720444 0.000000
v -81.734291 -122.324013 -29.263548
v -76.992004 -115.226715 -57.402519
v -69.290977 -103.701279 -83.335541
v -58.927132 -88.190712 -106.066017
v -46.298752 -69.290977 -124.720444
v -31.891138 -47.728470 -138.581940
v -16.257956 -24.331755 -147.117798
v -20.692451 -20.692455 147.117798
v -40.589718 -40.589722 138.581940
v -58.927132 -58.927128 124.720444
v -75.000015 -75.000038 106.066017
v -88.190681 -88.190689 83.335541
v -97.992233 -97.992271 57.402519
v -104.028008 -104.028023 29.263548
v -106.066032 -106.066010 0.000000
v -104.028008 -104.028023 -29.263548
v -97.992233 -97.992271 -57.402519
v -88.190681 -88.190689 -83.335541
v -75.000015 -75.000038 -106.066017
v -58.927132 -58.927128 -124.720444
v -40.589718 -40.589722 -138.581940
v -20.692451 -20.692455 -147.117798
v -24.331747 -16.257957 147.117798
v -47.728462 -31.891136 138.581940
v -69.290970 -46.298740 124.720444
v -88.190681 -58.927151 106.066017
v -103.701256 -69.290977 83.335541
v -115.226669 -76.992035 57.402519
v -122.323990 -81.734283 29.263548
v -124.720444 -83.335510 0.000000
v -122.323990 -81.734283 -29.263548
v -115.226669 -76.992035 -57.402519
v -103.701256 -69.290977 -83.335541
v -88.190681 -58.927151 -106.066017
v -69.290970 -46.298740 -124.720444
v -47.728462 -31.891136 -138.581940
v -24.331747 -16.257957 -147.117798
v -27.035988 -11.198674 147.117798
v -53.033016 -21.966993 138.581940
v -76.991997 -31.891125 124.720444
v -97.992241 -40.589725 106.066017
v -115.226662 -47.728447 83.335541
v -128.033020 -53.033035 57.402519
v -135.919128 -56.299538 29.263548
v -138.581924 -57.402481 0.000000
v -135.919128 -56.299538 -29.263548
v -128.033020 -53.033035 -57.402519
v -115.226662 -47.728447 -83.335541
v -97.992241 -40.589725 -106.066017
v -76.991997 -31.891125 -124.720444
v -53.033016 -21.966993 -138.581940
v -27.035988 -11.198674 -147.117798
v -28.701250 -5.709034 147.117798
v -56.299545 -11.198671 138.581940
v -81.734261 -16.257944 124.720444
v -104.028008 -20.692463 106.066017
v -122.323967 -24.331743 83.335541
v -135.919128 -27.036009 57.402519
v -144.290970 -28.701246 29.263548
v -147.117767 -29.263504 0.000000
v -144.290970 -28.701246 -29.263548
v -135.919128 -27.036009 -57.402519
v -122.323967 -24.331743 -83.335541
v -104.028008 -20.692463 -106.066017
v -81.734261 -16.257944 -124.720444
v -56.299545 -11.198671 -138.581940
v -28.701250 -5.709034 -147.117798
v -29.263538 0.000001 147.117798
v -57.402523 0.000008 138.581940
v -83.335518 0.000015 124.720444
v -106.066032 0.000002 106.066017
v -124.720436 0.000016 83.335541
v -138.581940 -0.000004 57.402519
v -147.117798 0.000020 29.263548
v -149.999954 0.000049 0.000000
v -147.117798 0.000020 -29.263548
v -138.581940 -0.000004 -57.402519
v -124.720436 0.000016 -83.335541
v -106.066032 0.000002 -106.066017
v -83.335518 0.000015 -124.720444
v -57.402523 0.000008 -138.581940
v -29.263538 0.000001 -147.117798
v -28.701246 5.709036 147.117798
v -56.299545 11.198688 138.581940
v -81.734253 16.257973 124.720444
v -104.028000 20.692465 106.066017
v -122.323959 24.331774 83.335541
v -135.919113 27.035997 57.402519
v -144.290955 28.701286 29.263548
v -147.117737 29.263596 0.000000
v -144.290955 28.701286 -29.263548
v -135.919113 27.035997 -57.402519
v -122.323959 24.331774 -83.335541
v -104.028000 20.692465 -106.066017
v -81.734253 16.257973 -124.720444
v -56.299545 11.198688 -138.581940
v -28.701246 5.709036 -147.117798
v -27.035982 11.198674 147.117798
v -53.033009 21.967005 138.581940
v -76.991966 31.891146 124.720444
v -97.992233 40.589725 106.066017
v -115.226646 47.728477 83.335541
v -128.033005 53.033016 57.402519
v -135.919098 56.299576 29.263548
v -138.581848 57.402557 0.000000
v -135.919098 56.299576 -29.263548
v -128.033005 53.033016 -57.402519
v -115.226646 47.728477 -83.335541
v -97.992233 40.589725 -106.066017
v -76.991966 31.891146 -124.720444
v -53.033009 21.967005 -138.581940
v -27.035982 11.198674 -147.117798
v -24.331741 16.257956 147.117798
v -47.728447 31.891146 138.581940
v -69.290932 46.298756 124.720444
v -88.190681 58.927151 106.066017
v -103.701241 69.290993 83.335541
v -115.226662 76.992004 57.402519
v -122.323952 81.734314 29.263548
v -124.720352 83.335571 0.000000
v -122.323952 81.734314 -29.263548
v -115.226662 76.992004 -57.402519
v -103.701241 69.290993 -83.335541
v -88.190681 58.927151 -106.066017
v -69.290932 46.298756 -124.720444
v -47.728447 31.891146 -138.581940
v -24.331741 16.257956 -147.117798
v -20.692442 20.692451 147.117798
v -40.589703 40.589725 138.581940
v -58.927086 58.927132 124.720444
v -75.000008 75.000031 106.066017
v -88.190643 88.190697 83.335541
v -97.992218 97.992241 57.402519
v -104.027962 104.028030 29.263548
v -106.065926 106.066032 0.000000
v -104.027962 104.028030 -29.263548
v -97.992218 97.992241 -57.402519
v -88.190643 88.190697 -83.335541
v -75.000008 75.000031 -106.066017
v -58.927086 58.927132 -124.720444
v -40.589703 40.589725 -138.581940
v -20.692442 20.692451 -147.117798
v 0.000000 0.000000 -150.000000
v -16.257946 24.331747 147.117798
v -31.891121 47.728466 138.581940
v -46.298710 69.290970 124.720444
v -58.927124 88.190712 106.066017
v -69.290939 103.701279 83.335541
v -76.991997 115.226685 57.402519
v -81.734238 122.324013 29.263548
v -83.335434 124.720444 0.000000
v -81.734238 122.324013 -29.263548
v -76.991997 115.226685 -57.402519
v -69.290939 103.701279 -83.335541
v -58.927124 88.190712 -106.066017
v -46.298710 69.290970 -124.720444
v -31.891121 47.728466 -138.581940
v -16.257946 24.331747 -147.117798
v -11.198667 27.035988 147.117798
v -21.966986 53.033020 138.581940
v -31.891096 76.991989 124.720444
v -40.589706 97.992256 106.066017
v -47.728416 115.226677 83.335541
v -53.033005 128.033035 57.402519
v -56.299503 135.919159 29.263548
v -57.402420 138.581909 0.000000
v -56.299503 135.919159 -29.263548
v -53.033005 128.033035 -57.402519
v -47.728416 115.226677 -83.335541
v -40.589706 97.992256 -106.066017
v -31.891096 76.991989 -124.720444
v -21.966986 53.033020 -138.581940
v -11.198667 27.035988 -147.117798
v -5.709029 28.701252 147.117798
v -11.198667 56.299553 138.581940
v -16.257929 81.734261 124.720444
v -20.692451 104.028030 106.066017
v -24.331722 122.323990 83.335541
v -27.035992 135.919144 57.402519
v -28.701218 144.291000 29.263548
v -29.263464 147.117752 0.000000
v -28.701218 144.291000 -29.263548
v -27.035992 135.919144 -57.402519
v -24.331722 122.323990 -83.335541
v -20.692451 104.028030 -106.066017
v -16.257929 81.734261 -124.720444
v -11.198667 56.299553 -138.581940
v -5.709029 28.701252 -147.117798
v 0.000003 29.263540 147.117798
v 0.000008 57.402527 138.581940
v 0.000022 83.335518 124.720444
v 0.000004 106.066055 106.066017
v 0.000025 124.720459 83.335541
v 0.000002 138.581955 57.402519
v 0.000040 147.117828 29.263548
v 0.000067 149.999954 0.000000
v 0.000040 147.117828 -29.263548
v 0.000002 138.581955 -57.402519
v 0.000025 124.720459 -83.335541
v 0.000004 106.066055 -106.066017
v 0.000022 83.335518 -124.720444
v 0.000008 57.402527 -138.581940
v 0.000003 29.263540 -147.117798
v 5.709035 28.701248 147.117798
v 11.198682 56.299549 138.581940
v 16.257971 81.734253 124.720444
v 20.692461 104.028023 106.066017
v 24.331772 122.323967 83.335541
v 27.035994 135.919144 57.402519
v 28.701292 144.290970 29.263548
v 29.263596 147.117737 0.000000
v 28.701292 144.290970 -29.263548
v 27.035994 135.919144 -57.402519
v 24.331772 122.323967 -83.335541
v 20.692461 104.028023 -106.066017
v 16.257971 81.734253 -124.720444
v 11.198682 56.299549 -138.581940
v 5.709035 28.701248 -147.117798
v 11.198671 27.035984 147.117798
v 21.966993 53.033012 138.581940
v 31.891132 76.991959 124.720444
v 40.589714 97.992249 106.066017
v 47.728462 115.226654 83.335541
v 53.033001 128.033035 57.402519
v 56.299568 135.919113 29.263548
v 57.402538 138.581848 0.000000
v 56.299568 135.919113 -29.263548
v 53.033001 128.033035 -57.402519
v 47.728462 115.226654 -83.335541
v 40.589714 97.992249 -106.066017
v 31.891132 76.991959 -124.720444
v 21.966993 53.033012 -138.581940
v 11.198671 27.035984 -147.117798
v 16.257950 24.331741 147.117798
v 31.891129 47.728447 138.581940
v 46.298737 69.290924 124.720444
v 58.927128 88.190697 106.066017
v 69.290970 103.701241 83.335541
v 76.991982 115.226677 57.402519
v 81.734291 122.323959 29.263548
v 83.335541 124.720345 0.000000
v 81.734291 122.323959 -29.263548
v 76.991982 115.226677 -57.402519
v 69.290970 103.701241 -83.335541
v 58.927128 88.190697 -106.066017
v 46.298737 69.290924 -124.720444
v 31.891129 47.728447 -138.581940
v 16.257950 24.331741 -147.117798
v 20.692442 20.692444 147.117798
v 40.589703 40.589706 138.581940
v 58.927105 58.927082 124.720444
v 75.000008 75.000023 106.066017
v 88.190666 88.190643 83.335541
v 97.992203 97.992233 57.402519
v 104.027992 104.027969 29.263548
v 106.065987 106.065926 0.000000
v 104.027992 104.027969 -29.263548
v 97.992203 97.992233 -57.402519
v 88.190666 88.190643 -83.335541
v 75.000008 75.000023 -106.066017
v 58.927105 58.927082 -124.720444
v 40.589703 40.589706 -138.581940
v 20.692442 20.692444 -147.117798
v 24.331736 16.257948 147.117798
v 47.728443 31.891127 138.581940
v 69.290939 46.298702 124.720444
v 88.190681 58.927132 106.066017
v 103.701241 69.290932 83.335541
v 115.226646 76.991997 57.402519
v 122.323959 81.734238 29.263548
v 124.720383 83.335434 0.000000
v 122.323959 81.734238 -29.263548
v 115.226646 76.991997 -57.402519
v 103.701241 69.290932 -83.335541
v 88.190681 58.927132 -106.066017
v 69.290939 46.298702 -124.720444
v 47.728443 31.891127 -138.581940
v 24.331736 16.257948 -147.117798
v 27.035973 11.198668 147.117798
v 53.033001 21.966988 138.581940
v 76.991951 31.891085 124.720444
v 97.992233 40.589710 106.066017
v 115.226624 47.728413 83.335541
v 128.032990 53.033009 57.402519
v 135.919083 56.299507 29.263548
v 138.581833 57.402420 0.000000
v 135.919083 56.299507 -29.263548
v 128.032990 53.033009 -57.402519
v 115.226624 47.728413 -83.335541
v 97.992233 40.589710 -106.066017
v 76.991951 31.891085 -124.720444
v 53.033001 21.966988 -138.581940
v 27.035973 11.198668 -147.117798
v 28.701235 5.709030 147.117798
v 56.299530 11.198667 138.581940
v 81.734207 16.257915 124.720444
v 104.028000 20.692448 106.066017
v 122.323921 24.331717 83.335541
v 135.919083 27.035988 57.402519
v 144.290924 28.701218 29.263548
v 147.117676 29.263464 0.000000
v 144.290924 28.701218 -29.263548
v 135.919083 27.035988 -57.402519
v 122.323921 24.331717 -83.335541
v 104.028000 20.692448 -106.066017
v 81.734207 16.257915 -124.720444
v 56.299530 11.198667 -138.581940
v 28.701235 5.709030 -147.117798
v 29.263525 -0.000002 147.117798
v 57.402504 -0.000010 138.581940
v 106.066017 -0.000013 106.066017
v 138.581894 -0.000009 57.402519
v 138.581894 -0.000009 -57.402519
v 106.066017 -0.000013 -106.066017
v 83.335457 -0.000032 -124.720444
v 57.402504 -0.000010 -138.581940
v 29.263525 -0.000002 -147.117798
vn -0.5598 -0.0000 -0.8286
vn -0.8333 -0.0000 -0.5528
vn -0.9810 -0.0000 -0.1939
vn -1.0000 -0.0000 -0.0000
vn -0.9810 -0.0000 0.1939
vn -0.8333 -0.0000 0.5528
vn -0.1971 0.0392 -0.9796
vn -0.3804 0.0757 -0.9217
vn -0.5490 0.1092 -0.8286
vn -0.6965 0.1385 -0.7041
vn -0.8173 0.1626 -0.5528
vn -0.9070 0.1804 -0.3805
vn -0.9622 0.1914 -0.1939
vn -0.9808 0.1951 -0.0000
vn -0.9622 0.1914 0.1939
vn -0.9070 0.1804 0.3805
vn -0.8173 0.1626 0.5528
vn -0.6965 0.1385 0.7041
vn -0.5490 0.1092 0.8286
vn -0.3804 0.0757 0.9217
vn -0.1971 0.0392 0.9796
vn -0.1857 0.0769 -0.9796
vn -0.3584 0.1484 -0.9217
vn -0.5172 0.2142 -0.8286
vn -0.6561 0.2718 -0.7041
vn -0.7699 0.3189 -0.5528
vn -0.8544 0.3539 -0.3805
vn -0.9063 0.3754 -0.1939
vn -0.9239 0.3827 -0.0000
vn -0.9063 0.3754 0.1939
vn -0.8544 0.3539 0.3805
vn -0.7699 0.3189 0.5528
vn -0.6561 0.2718 0.7041
vn -0.5172 0.2142 0.8286
vn -0.3584 0.1484 0.9217
vn -0.1857 0.0769 0.9796
vn -0.1671 0.1117 -0.9796
vn -0.3225 0.2155 -0.9217
vn -0.4654 0.3110 -0.8286
vn -0.5905 0.3945 -0.7041
vn -0.6929 0.4630 -0.5528
vn -0.7689 0.5138 -0.3805
vn -0.8157 0.5450 -0.1939
vn -0.8315 0.5556 -0.0000
vn -0.8157 0.5450 0.1939
vn -0.7689 0.5138 0.3805
vn -0.6929 0.4630 0.5528
vn -0.5905 0.3945 0.7041
vn -0.4654 0.3110 0.8286
vn -0.3225 0.2155 0.9217
vn -0.1671 0.1117 0.9796
vn -0.1421 0.1421 -0.9796
vn -0.2743 0.2743 -0.9217
vn -0.3958 0.3958 -0.8286
vn -0.5021 0.5021 -0.7041
vn -0.5893 0.5893 -0.5528
vn -0.6539 0.6539 -0.3805
vn -0.6937 0.6937 -0.1939
vn -0.7071 0.7071 -0.0000
vn -0.6937 0.6937 0.1939
vn -0.6539 0.6539 0.3805
vn -0.5893 0.5893 0.5528
vn -0.5021 0.5021 0.7041
vn -0.3958 0.3958 0.8286
vn -0.2743 0.2743 0.9217
vn -0.1421 0.1421 0.9796
vn -0.1117 0.1671 -0.9796
vn -0.2155 0.3225 -0.9217
vn -0.3110 0.4654 -0.8286
vn -0.3945 0.5905 -0.7041
vn -0.4630 0.6929 -0.5528
vn -0.5138 0.7689 -0.3805
vn -0.5450 0.8157 -0.1939
vn -0.5556 0.8315 -0.0000
vn -0.5450 0.8157 0.1939
vn -0.5138 0.7689 0.3805
vn -0.4630 0.6929 0.5528
vn -0.3945 0.5905 0.7041
vn -0.3110 0.4654 0.8286
vn -0.2155 0.3225 0.9217
vn -0.1117 0.1671 0.9796
vn -0.0000 -0.0000 -1.0000
vn -0.0769 0.1857 -0.9796
vn -0.1484 0.3584 -0.9217
vn -0.2142 0.5172 -0.8286
vn -0.2718 0.6561 -0.7041
vn -0.3189 0.7699 -0.5528
vn -0.3539 0.8544 -0.3805
vn -0.3754 0.9063 -0.1939
vn -0.3827 0.9239 -0.0000
vn -0.3754 0.9063 0.1939
vn -0.3539 0.8544 0.3805
vn -0.3189 0.7699 0.5528
vn -0.2718 0.6561 0.7041
vn -0.2142 0.5172 0.8286
vn -0.1484 0.3584 0.9217
vn -0.0769 0.1857 0.9796
vn -0.0392 0.1971 -0.9796
vn -0.0757 0.3804 -0.9217
vn -0.1092 0.5490 -0.8286
vn -0.1385 0.6965 -0.7041
vn -0.1626 0.8173 -0.5528
vn -0.1804 0.9070 -0.3805
vn -0.1914 0.9622 -0.1939
vn -0.1951 0.9808 -0.0000
vn -0.1914 0.9622 0.1939
vn -0.1804 0.9070 0.3805
vn -0.1626 0.8173 0.5528
vn -0.1385 0.6965 0.7041
vn -0.1092 0.5490 0.8286
vn -0.0757 0.3804 0.9217
vn -0.0392 0.1971 0.9796
vn -0.0000 0.2010 -0.9796
vn -0.0000 0.3879 -0.9217
vn -0.0000 0.5598 -0.8286
vn -0.0000 0.7101 -0.7041
vn -0.0000 0.8333 -0.5528
vn -0.0000 0.9248 -0.3805
vn -0.0000 0.9810 -0.1939
vn -0.0000 1.0000 -0.0000
vn -0.0000 0.9810 0.1939
vn -0.0000 0.9248 0.3805
vn -0.0000 0.8333 0.5528
vn -0.0000 0.7101 0.7041
vn -0.0000 0.5598 0.8286
vn -0.0000 0.3879 0.9217
vn -0.0000 0.2010 0.9796
vn 0.0392 0.1971 -0.9796
vn 0.0757 0.3804 -0.9217
vn 0.1092 0.5490 -0.8286
vn 0.1385 0.6965 -0.7041
vn 0.1626 0.8173 -0.5528
vn 0.1804 0.9070 -0.3805
vn 0.1914 0.9622 -0.1939
vn 0.1951 0.9808 -0.0000
vn 0.1914 0.9622 0.1939
vn 0.1804 0.9070 0.3805
vn 0.1626 0.8173 0.5528
vn 0.1385 0.6965 0.7041
vn 0.1092 0.5490 0.8286
vn 0.0757 0.3804 0.9217
vn 0.0392 0.1971 0.9796
vn 0.0769 0.1857 -0.9796
vn 0.1484 0.3584 -0.9217
vn 0.2142 0.5172 -0.8286
vn 0.2718 0.6561 -0.7041
vn 0.3189 0.7699 -0.5528
vn 0.3539 0.8544 -0.3805
vn 0.3754 0.9063 -0.1939
vn 0.3827 0.9239 -0.0000
vn 0.3754 0.9063 0.1939
vn 0.3539 0.8544 0.3805
vn 0.3189 0.7699 0.5528
vn 0.2718 0.6561 0.7041
vn 0.2142 0.5172 0.8286
vn 0.1484 0.3584 0.9217
vn 0.0769 0.1857 0.9796
vn 0.1117 0.1671 -0.9796
vn 0.2155 0.3225 -0.9217
vn 0.3110 0.4654 -0.8286
vn 0.3945 0.5905 -0.7041
vn 0.4630 0.6929 -0.5528
vn 0.5138 0.7689 -0.3805
vn 0.5450 0.8157 -0.1939
vn 0.5556 0.8315 -0.0000
vn 0.5450 0.8157 0.1939
vn 0.5138 0.7689 0.3805
vn 0.4630 0.6929 0.5528
vn 0.3945 0.5905 0.7041
vn 0.3110 0.4654 0.8286
vn 0.2155 0.3225 0.9217
vn 0.1117 0.1671 0.9796
vn 0.1421 0.1421 -0.9796
vn 0.2743 0.2743 -0.9217
vn 0.3958 0.3958 -0.8286
vn 0.5021 0.5021 -0.7041
vn 0.5893 0.5893 -0.5528
vn 0.6539 0.6539 -0.3805
vn 0.6937 0.6937 -0.1939
vn 0.7071 0.7071 -0.0000
vn 0.6937 0.6937 0.1939
vn 0.6539 0.6539 0.3805
vn 0.5893 0.5893 0.5528
vn 0.5021 0.5021 0.7041
vn 0.3958 0.3958 0.8286
vn 0.2743 0.2743 0.9217
vn 0.1421 0.1421 0.9796
vn 0.1671 0.1116 -0.9796
vn 0.3225 0.2155 -0.9217
vn 0.4654 0.3110 -0.8286
vn 0.5905 0.3945 -0.7041
vn 0.6929 0.4630 -0.5528
vn 0.7689 0.5138 -0.3805
vn 0.8157 0.5450 -0.1939
vn 0.8315 0.5556 -0.0000
vn 0.8157 0.5450 0.1939
vn 0.7689 0.5138 0.3805
vn 0.6929 0.4630 0.5528
vn 0.5905 0.3945 0.7041
vn 0.4654 0.3110 0.8286
vn 0.3225 0.2155 0.9217
vn 0.1671 0.1117 0.9796
vn 0.1857 0.0769 -0.9796
vn 0.3584 0.1484 -0.9217
vn 0.5172 0.2142 -0.8286
vn 0.6561 0.2718 -0.7041
vn 0.7699 0.3189 -0.5528
vn 0.8544 0.3539 -0.3805
vn 0.9063 0.3754 -0.1939
vn 0.9239 0.3827 -0.0000
vn 0.9063 0.3754 0.1939
vn 0.8544 0.3539 0.3805
vn 0.7699 0.3189 0.5528
vn 0.6561 0.2718 0.7041
vn 0.5172 0.2142 0.8286
vn 0.3584 0.1484 0.9217
vn 0.1857 0.0769 0.9796
vn 0.1971 0.0392 -0.9796
vn 0.3804 0.0757 -0.9217
vn 0.5490 0.1092 -0.8286
vn 0.6965 0.1385 -0.7041
vn 0.8173 0.1626 -0.5528
vn 0.9070 0.1804 -0.3805
vn 0.9622 0.1914 -0.1939
vn 0.9808 0.1951 -0.0000
vn 0.9622 0.1914 0.1939
vn 0.9070 0.1804 0.3805
vn 0.8173 0.1626 0.5528
vn 0.6965 0.1385 0.7041
vn 0.5490 0.1092 0.8286
vn 0.3804 0.0757 0.9217
vn 0.1971 0.0392 0.9796
vn 0.2010 -0.0000 -0.9796
vn 0.3879 -0.0000 -0.9217
vn 0.5598 -0.0000 -0.8286
vn 0.7101 -0.0000 -0.7041
vn 0.8333 -0.0000 -0.5528
vn 0.9248 -0.0000 -0.3805
vn 0.9810 -0.0000 -0.1939
vn 1.0000 -0.0000 -0.0000
vn 0.9810 -0.0000 0.1939
vn 0.9248 -0.0000 0.3805
vn 0.8333 -0.0000 0.5528
vn 0.7101 -0.0000 0.7041
vn 0.5598 -0.0000 0.8286
vn 0.3879 -0.0000 0.9217
vn 0.2010 -0.0000 0.9796
vn 0.1971 -0.0392 -0.9796
vn 0.3804 -0.0757 -0.9217
vn 0.5490 -0.1092 -0.8286
vn 0.6965 -0.1385 -0.7041
vn 0.8173 -0.1626 -0.5528
vn 0.9070 -0.1804 -0.3805
vn 0.9622 -0.1914 -0.1939
vn 0.9808 -0.1951 -0.0000
vn 0.9622 -0.1914 0.1939
vn 0.9070 -0.1804 0.3805
vn 0.8173 -0.1626 0.5528
vn 0.6965 -0.1385 0.7041
vn 0.5490 -0.1092 0.8286
vn 0.3804 -0.0757 0.9217
vn 0.1971 -0.0392 0.9796
vn 0.1857 -0.0769 -0.9796
vn 0.3584 -0.1484 -0.9217
vn 0.5172 -0.2142 -0.8286
vn 0.6561 -0.2718 -0.7041
vn 0.7699 -0.3189 -0.5528
vn 0.8544 -0.3539 -0.3805
vn 0.9063 -0.3754 -0.1939
vn 0.9239 -0.3827 -0.0000
vn 0.9063 -0.3754 0.1939
vn 0.8544 -0.3539 0.3805
vn 0.7699 -0.3189 0.5528
vn 0.6561 -0.2718 0.7041
vn 0.5172 -0.2142 0.8286
vn 0.3584 -0.1484 0.9217
vn 0.1857 -0.0769 0.9796
vn 0.1671 -0.1117 -0.9796
vn 0.3225 -0.2155 -0.9217
vn 0.4654 -0.3110 -0.8286
vn 0.5905 -0.3945 -0.7041
vn 0.6929 -0.4630 -0.5528
vn 0.7689 -0.5138 -0.3805
vn 0.8157 -0.5450 -0.1939
vn 0.8315 -0.5556 -0.0000
vn 0.8157 -0.5450 0.1939
vn 0.7689 -0.5138 0.3805
vn 0.6929 -0.4630 0.5528
vn 0.5905 -0.3945 0.7041
vn 0.4654 -0.3110 0.8286
vn 0.3225 -0.2155 0.9217
vn 0.1671 -0.1117 0.9796
vn 0.1421 -0.1421 -0.9796
vn 0.2743 -0.2743 -0.9217
vn 0.3958 -0.3958 -0.8286
vn 0.5021 -0.5021 -0.7041
vn 0.5893 -0.5893 -0.5528
vn 0.6539 -0.6539 -0.3805
vn 0.6937 -0.6937 -0.1939
vn 0.7071 -0.7071 -0.0000
vn 0.6937 -0.6937 0.1939
vn 0.6539 -0.6539 0.3805
vn 0.5893 -0.5893 0.5528
vn 0.5021 -0.5021 0.7041
vn 0.3958 -0.3958 0.8286
vn 0.2743 -0.2743 0.9217
vn 0.1421 -0.1421 0.9796
vn -0.0000 -0.0000 1.0000
vn 0.1117 -0.1671 -0.9796
vn 0.2155 -0.3225 -0.9217
vn 0.3110 -0.4654 -0.8286
vn 0.3945 -0.5905 -0.7041
vn 0.4630 -0.6929 -0.5528
vn 0.5138 -0.7689 -0.3805
vn 0.5450 -0.8157 -0.1939
vn 0.5556 -0.8315 -0.0000
vn 0.5450 -0.8157 0.1939
vn 0.5138 -0.7689 0.3805
vn 0.4630 -0.6929 0.5528
vn 0.3945 -0.5905 0.7041
vn 0.3110 -0.4654 0.8286
vn 0.2155 -0.3225 0.9217
vn 0.1117 -0.1671 0.9796
vn 0.0769 -0.1857 -0.9796
vn 0.1484 -0.3584 -0.9217
vn 0.2142 -0.5172 -0.8286
vn 0.2718 -0.6561 -0.7041
vn 0.3189 -0.7699 -0.5528
vn 0.3539 -0.8544 -0.3805
vn 0.3754 -0.9063 -0.1939
vn 0.3827 -0.9239 -0.0000
vn 0.3754 -0.9063 0.1939
vn 0.3539 -0.8544 0.3805
vn 0.3189 -0.7699 0.5528
vn 0.2718 -0.6561 0.7041
vn 0.2142 -0.5172 0.8286
vn 0.1484 -0.3584 0.9217
vn 0.0769 -0.1857 0.9796
vn 0.0392 -0.1971 -0.9796
vn 0.0757 -0.3804 -0.9217
vn 0.1092 -0.5490 -0.8286
vn 0.1385 -0.6965 -0.7041
vn 0.1626 -0.8173 -0.5528
vn 0.1804 -0.9070 -0.3805
vn 0.1914 -0.9622 -0.1939
vn 0.1951 -0.9808 -0.0000
vn 0.1914 -0.9622 0.1939
vn 0.1804 -0.9070 0.3805
vn 0.1626 -0.8173 0.5528
vn 0.1385 -0.6965 0.7041
vn 0.1092 -0.5490 0.8286
vn 0.0757 -0.3804 0.9217
vn 0.0392 -0.1971 0.9796
vn -0.0000 -0.2010 -0.9796
vn -0.0000 -0.3879 -0.9217
vn -0.0000 -0.5598 -0.8286
vn -0.0000 -0.7101 -0.7041
vn -0.0000 -0.8333 -0.5528
vn -0.0000 -0.9248 -0.3805
vn -0.0000 -0.9810 -0.1939
vn -0.0000 -1.0000 -0.0000
vn -0.0000 -0.9810 0.1939
vn -0.0000 -0.9248 0.3805
vn -0.0000 -0.8333 0.5528
vn -0.0000 -0.7101 0.7041
vn -0.0000 -0.5598 0.8286
vn -0.0000 -0.3879 0.9217
vn -0.0000 -0.2010 0.9796
vn -0.0392 -0.1971 -0.9796
vn -0.0757 -0.3804 -0.9217
vn -0.1092 -0.5490 -0.8286
vn -0.1385 -0.6965 -0.7041
vn -0.1626 -0.8173 -0.5528
vn -0.1804 -0.9070 -0.3805
vn -0.1914 -0.9622 -0.1939
vn -0.1951 -0.9808 -0.0000
vn -0.1914 -0.9622 0.1939
vn -0.1804 -0.9070 0.3805
vn -0.1626 -0.8173 0.5528
vn -0.1385 -0.6965 0.7041
vn -0.1092 -0.5490 0.8286
vn -0.0757 -0.3804 0.9217
vn -0.0392 -0.1971 0.9796
vn -0.0769 -0.1857 -0.9796
vn -0.1484 -0.3584 -0.9217
vn -0.2142 -0.5172 -0.8286
vn -0.2718 -0.6561 -0.7041
vn -0.3189 -0.7699 -0.5528
vn -0.3539 -0.8544 -0.3805
vn -0.3754 -0.9063 -0.1939
vn -0.3827 -0.9239 -0.0000
vn -0.3754 -0.9063 0.1939
vn -0.3539 -0.8544 0.3805
vn -0.3189 -0.7699 0.5528
vn -0.2718 -0.6561 0.7041
vn -0.2142 -0.5172 0.8286
vn -0.1484 -0.3584 0.9217
vn -0.0769 -0.1857 0.9796
vn -0.1117 -0.1671 -0.9796
vn -0.2155 -0.3225 -0.9217
vn -0.3110 -0.4654 -0.8286
vn -0.3945 -0.5905 -0.7041
vn -0.4630 -0.6929 -0.5528
vn -0.5138 -0.7689 -0.3805
vn -0.5450 -0.8157 -0.1939
vn -0.5556 -0.8315 -0.0000
vn -0.5450 -0.8157 0.1939
vn -0.5138 -0.7689 0.3805
vn -0.4630 -0.6929 0.5528
vn -0.3945 -0.5905 0.7041
vn -0.3110 -0.4654 0.8286
vn -0.2155 -0.3225 0.9217
vn -0.1117 -0.1671 0.9796
vn -0.1421 -0.1421 -0.9796
vn -0.2743 -0.2743 -0.9217
vn -0.3958 -0.3958 -0.8286
vn -0.5021 -0.5021 -0.7041
vn -0.5893 -0.5893 -0.5528
vn -0.6539 -0.6539 -0.3805
vn -0.6937 -0.6937 -0.1939
vn -0.7071 -0.7071 -0.0000
vn -0.6937 -0.6937 0.1939
vn -0.6539 -0.6539 0.3805
vn -0.5893 -0.5893 0.5528
vn -0.5021 -0.5021 0.7041
vn -0.3958 -0.3958 0.8286
vn -0.2743 -0.2743 0.9217
vn -0.1421 -0.1421 0.9796
vn -0.1671 -0.1117 -0.9796
vn -0.3225 -0.2155 -0.9217
vn -0.4654 -0.3110 -0.8286
vn -0.5905 -0.3945 -0.7041
vn -0.6929 -0.4630 -0.5528
vn -0.7689 -0.5138 -0.3805
vn -0.8157 -0.5450 -0.1939
vn -0.8315 -0.5556 -0.0000
vn -0.8157 -0.5450 0.1939
vn -0.7689 -0.5138 0.3805
vn -0.6929 -0.4630 0.5528
vn -0.5905 -0.3945 0.7041
vn -0.4654 -0.3110 0.8286
vn -0.3225 -0.2155 0.9217
vn -0.1671 -0.1117 0.9796
vn -0.1857 -0.0769 -0.9796
vn -0.3584 -0.1484 -0.9217
vn -0.5172 -0.2142 -0.8286
vn -0.6561 -0.2718 -0.7041
vn -0.7699 -0.3189 -0.5528
vn -0.8544 -0.3539 -0.3805
vn -0.9063 -0.3754 -0.1939
vn -0.9239 -0.3827 -0.0000
vn -0.9063 -0.3754 0.1939
vn -0.8544 -0.3539 0.3805
vn -0.7699 -0.3189 0.5528
vn -0.6561 -0.2718 0.7041
vn -0.5172 -0.2142 0.8286
vn -0.3584 -0.1484 0.9217
vn -0.1857 -0.0769 0.9796
vn -0.1971 -0.0392 -0.9796
vn -0.3804 -0.0757 -0.9217
vn -0.5490 -0.1092 -0.8286
vn -0.6965 -0.1385 -0.7041
vn -0.8173 -0.1626 -0.5528
vn -0.9070 -0.1804 -0.3805
vn -0.9622 -0.1914 -0.1939
vn -0.9808 -0.1951 -0.0000
vn -0.9622 -0.1914 0.1939
vn -0.9070 -0.1804 0.3805
vn -0.8173 -0.1626 0.5528
vn -0.6965 -0.1385 0.7041
vn -0.5490 -0.1092 0.8286
vn -0.3804 -0.0757 0.9217
vn -0.1971 -0.0392 0.9796
vn -0.2010 -0.0000 -0.9796
vn -0.3879 -0.0000 -0.9217
vn -0.7101 -0.0000 -0.7041
vn -0.9248 -0.0000 -0.3805
vn -0.9248 -0.0000 0.3805
vn -0.7101 -0.0000 0.7041
vn -0.5598 -0.0000 0.8286
vn -0.3879 -0.0000 0.9217
vn -0.2010 -0.0000 0.9796
vt 0.747984 0.273348
vt 0.716734 0.273348
vt 0.716734 0.314410
vt 0.747984 0.314410
vt 0.747984 0.560784
vt 0.716734 0.560784
vt 0.716734 0.601846
vt 0.747984 0.601846
vt 0.747984 0.232286
vt 0.716734 0.232286
vt 0.747984 0.519722
vt 0.716734 0.519722
vt 0.747984 0.191224
vt 0.716734 0.191224
vt 0.747984 0.478659
vt 0.716734 0.478659
vt 0.747984 0.150161
vt 0.716734 0.150161
vt 0.747984 0.437597
vt 0.716734 0.437597
vt 0.747984 0.109099
vt 0.716734 0.109099
vt 0.747984 0.396535
vt 0.716734 0.396535
vt 0.747984 0.068037
vt 0.716734 0.068037
vt 0.747984 0.355473
vt 0.716734 0.355473
vt 0.747984 0.642909
vt 0.716734 0.642909
vt 0.732359 0.683971
vt 0.732359 0.026974
vt 0.701109 0.026974
vt 0.685484 0.068037
vt 0.685484 0.314410
vt 0.685484 0.355473
vt 0.685484 0.601846
vt 0.685484 0.642909
vt 0.685484 0.273348
vt 0.685484 0.560784
vt 0.685484 0.232286
vt 0.685484 0.519722
vt 0.685484 0.191224
vt 0.685484 0.478659
vt 0.685484 0.150161
vt 0.685484 0.437597
vt 0.685484 0.109099
vt 0.685484 0.396535
vt 0.701109 0.683971
vt 0.654234 0.150161
vt 0.654234 0.191224
vt 0.654234 0.437597
vt 0.654234 0.478659
vt 0.654234 0.109099
vt 0.654234 0.396535
vt 0.654234 0.068037
vt 0.654234 0.355473
vt 0.654234 0.642909
vt 0.669859 0.683971
vt 0.669859 0.026974
vt 0.654234 0.314410
vt 0.654234 0.601846
vt 0.654234 0.273348
vt 0.654234 0.560784
vt 0.654234 0.232286
vt 0.654234 0.519722
vt 0.622984 0.601846
vt 0.622984 0.642909
vt 0.622984 0.273348
vt 0.622984 0.314410
vt 0.622984 0.560784
vt 0.622984 0.232286
vt 0.622984 0.519722
vt 0.622984 0.191224
vt 0.622984 0.478660
vt 0.622984 0.150161
vt 0.622984 0.437597
vt 0.622984 0.109099
vt 0.622984 0.396535
vt 0.622984 0.068037
vt 0.622984 0.355473
vt 0.638609 0.683971
vt 0.638609 0.026974
vt 0.591734 0.437597
vt 0.591734 0.478659
vt 0.591734 0.109099
vt 0.591734 0.150161
vt 0.591734 0.396535
vt 0.591734 0.068037
vt 0.591734 0.355473
vt 0.591734 0.642909
vt 0.607359 0.683971
vt 0.607359 0.026974
vt 0.591734 0.314410
vt 0.591734 0.601846
vt 0.591734 0.273348
vt 0.591734 0.560784
vt 0.591734 0.232286
vt 0.591734 0.519722
vt 0.591734 0.191224
vt 0.560484 0.273348
vt 0.560484 0.314410
vt 0.560484 0.560784
vt 0.560484 0.601846
vt 0.560484 0.232286
vt 0.560484 0.519722
vt 0.560484 0.191224
vt 0.560484 0.478659
vt 0.560484 0.150161
vt 0.560484 0.437597
vt 0.560484 0.109099
vt 0.560484 0.396535
vt 0.560484 0.068037
vt 0.560484 0.355473
vt 0.560484 0.642909
vt 0.576109 0.683971
vt 0.576109 0.026974
vt 0.529234 0.109099
vt 0.529234 0.150161
vt 0.529234 0.396535
vt 0.529234 0.437597
vt 0.529234 0.068037
vt 0.529234 0.355473
vt 0.529234 0.642909
vt 0.544859 0.683971
vt 0.544859 0.026974
vt 0.529234 0.314410
vt 0.529234 0.601846
vt 0.529234 0.273348
vt 0.529234 0.560784
vt 0.529234 0.232286
vt 0.529234 0.519722
vt 0.529234 0.191224
vt 0.529234 0.478660
vt 0.497984 0.560784
vt 0.497984 0.601846
vt 0.497984 0.232286
vt 0.497984 0.273348
vt 0.497984 0.519722
vt 0.497984 0.191224
vt 0.497984 0.478660
vt 0.497984 0.150161
vt 0.497984 0.437597
vt 0.497984 0.109099
vt 0.497984 0.396535
vt 0.497984 0.068037
vt 0.497984 0.355473
vt 0.497984 0.642909
vt 0.513609 0.683971
vt 0.513609 0.026974
vt 0.497984 0.314410
vt 0.466734 0.396535
vt 0.466734 0.437597
vt 0.466734 0.068037
vt 0.466734 0.109099
vt 0.466734 0.355473
vt 0.466734 0.642909
vt 0.482359 0.683971
vt 0.482359 0.026974
vt 0.466734 0.314410
vt 0.466734 0.601846
vt 0.466734 0.273348
vt 0.466734 0.560784
vt 0.466734 0.232286
vt 0.466734 0.519722
vt 0.466734 0.191224
vt 0.466734 0.478660
vt 0.466734 0.150161
vt 0.435484 0.232286
vt 0.435484 0.273348
vt 0.435484 0.519722
vt 0.435484 0.560784
vt 0.435484 0.191224
vt 0.435484 0.478660
vt 0.435484 0.150161
vt 0.435484 0.437597
vt 0.435484 0.109099
vt 0.435484 0.396535
vt 0.435484 0.068037
vt 0.435484 0.355473
vt 0.435484 0.642909
vt 0.451109 0.683971
vt 0.451109 0.026974
vt 0.435484 0.314410
vt 0.435484 0.601846
vt 0.404234 0.068037
vt 0.404234 0.109099
vt 0.404234 0.355473
vt 0.404234 0.396535
vt 0.404234 0.642909
vt 0.419859 0.683971
vt 0.419859 0.026974
vt 0.404234 0.314410
vt 0.404234 0.601846
vt 0.404234 0.273348
vt 0.404234 0.560784
vt 0.404234 0.232286
vt 0.404234 0.519722
vt 0.404234 0.191224
vt 0.404234 0.478660
vt 0.404234 0.150161
vt 0.404234 0.437597
vt 0.372984 0.191224
vt 0.372984 0.232286
vt 0.372984 0.478660
vt 0.372984 0.519722
vt 0.372984 0.150161
vt 0.372984 0.437597
vt 0.372984 0.109099
vt 0.372984 0.396535
vt 0.372984 0.068037
vt 0.372984 0.355473
vt 0.372984 0.642909
vt 0.388609 0.683971
vt 0.388609 0.026974
vt 0.372984 0.314410
vt 0.372984 0.601846
vt 0.372984 0.273348
vt 0.372984 0.560784
vt 0.341734 0.642909
vt 0.357359 0.683971
vt 0.357359 0.026974
vt 0.341734 0.068037
vt 0.341734 0.314410
vt 0.341734 0.355473
vt 0.341734 0.601846
vt 0.341734 0.273348
vt 0.341734 0.560784
vt 0.341734 0.232286
vt 0.341734 0.519722
vt 0.341734 0.191224
vt 0.341734 0.478660
vt 0.341734 0.150161
vt 0.341734 0.437597
vt 0.341734 0.109099
vt 0.341734 0.396535
vt 0.310484 0.478660
vt 0.310484 0.519722
vt 0.310484 0.150161
vt 0.310484 0.191224
vt 0.310484 0.437597
vt 0.310484 0.109099
vt 0.310484 0.396535
vt 0.310484 0.068037
vt 0.310484 0.355473
vt 0.310484 0.642909
vt 0.326109 0.683971
vt 0.326109 0.026974
vt 0.310484 0.314410
vt 0.310484 0.601846
vt 0.310484 0.273348
vt 0.310484 0.560784
vt 0.310484 0.232286
vt 0.279234 0.314410
vt 0.279234 0.355473
vt 0.279234 0.601846
vt 0.279234 0.642909
vt 0.279234 0.273348
vt 0.279234 0.560784
vt 0.279234 0.232286
vt 0.279234 0.519722
vt 0.279234 0.191224
vt 0.279234 0.478660
vt 0.279234 0.150161
vt 0.279234 0.437597
vt 0.279234 0.109099
vt 0.279234 0.396535
vt 0.279234 0.068037
vt 0.294859 0.683971
vt 0.294859 0.026974
vt 0.247984 0.150161
vt 0.247984 0.191224
vt 0.247984 0.437597
vt 0.247984 0.478660
vt 0.247984 0.109099
vt 0.247984 0.396535
vt 0.247984 0.068037
vt 0.247984 0.355473
vt 0.247984 0.642909
vt 0.263609 0.683971
vt 0.263609 0.026974
vt 0.247984 0.314410
vt 0.247984 0.601846
vt 0.247984 0.273348
vt 0.247984 0.560784
vt 0.247984 0.232286
vt 0.247984 0.519722
vt 0.216734 0.601846
vt 0.216734 0.642909
vt 0.216734 0.273348
vt 0.216734 0.314410
vt 0.216734 0.560784
vt 0.216734 0.232286
vt 0.216734 0.519722
vt 0.216734 0.191224
vt 0.216734 0.478660
vt 0.216734 0.150161
vt 0.216734 0.437597
vt 0.216734 0.109099
vt 0.216734 0.396535
vt 0.216734 0.068037
vt 0.216734 0.355473
vt 0.232359 0.683971
vt 0.232359 0.026974
vt 0.185484 0.437597
vt 0.185484 0.478660
vt 0.185484 0.109099
vt 0.185484 0.150161
vt 0.185484 0.396535
vt 0.185484 0.068037
vt 0.185484 0.355473
vt 0.185484 0.642909
vt 0.201109 0.683971
vt 0.201109 0.026974
vt 0.185484 0.314410
vt 0.185484 0.601846
vt 0.185484 0.273348
vt 0.185484 0.560784
vt 0.185484 0.232286
vt 0.185484 0.519722
vt 0.185484 0.191224
vt 0.154234 0.273348
vt 0.154234 0.314410
vt 0.154234 0.560784
vt 0.154234 0.601846
vt 0.154234 0.232286
vt 0.154234 0.519722
vt 0.154234 0.191224
vt 0.154234 0.478660
vt 0.154234 0.150161
vt 0.154234 0.437597
vt 0.154234 0.109099
vt 0.154234 0.396535
vt 0.154234 0.068037
vt 0.154234 0.355473
vt 0.154234 0.642909
vt 0.169859 0.683971
vt 0.169859 0.026974
vt 0.122984 0.109099
vt 0.122984 0.150161
vt 0.122984 0.396535
vt 0.122984 0.437597
vt 0.122984 0.068037
vt 0.122984 0.355473
vt 0.122984 0.642909
vt 0.138609 0.683971
vt 0.138609 0.026974
vt 0.122984 0.314410
vt 0.122984 0.601846
vt 0.122984 0.273348
vt 0.122984 0.560784
vt 0.122984 0.232286
vt 0.122984 0.519722
vt 0.122984 0.191224
vt 0.122984 0.478660
vt 0.091734 0.232286
vt 0.091734 0.273348
vt 0.091734 0.519722
vt 0.091734 0.560784
vt 0.091734 0.191224
vt 0.091734 0.478660
vt 0.091734 0.150161
vt 0.091734 0.437597
vt 0.091734 0.109099
vt 0.091734 0.396535
vt 0.091734 0.068037
vt 0.091734 0.355473
vt 0.091734 0.642909
vt 0.107359 0.683971
vt 0.107359 0.026974
vt 0.091734 0.314410
vt 0.091734 0.601846
vt 0.060484 0.068037
vt 0.060484 0.109099
vt 0.060484 0.355473
vt 0.060484 0.396535
vt 0.060484 0.642909
vt 0.076109 0.683971
vt 0.076109 0.026974
vt 0.060484 0.314410
vt 0.060484 0.601846
vt 0.060484 0.273348
vt 0.060484 0.560784
vt 0.060484 0.232286
vt 0.060484 0.519722
vt 0.060484 0.191224
vt 0.060484 0.478660
vt 0.060484 0.150161
vt 0.060484 0.437597
vt 0.029234 0.519722
vt 0.029234 0.560784
vt 0.029234 0.191224
vt 0.029234 0.232286
vt 0.029234 0.478660
vt 0.029234 0.150161
vt 0.029234 0.437597
vt 0.029234 0.109099
vt 0.029234 0.396535
vt 0.029234 0.068037
vt 0.029234 0.355473
vt 0.029234 0.642909
vt 0.044859 0.683971
vt 0.044859 0.026974
vt 0.029234 0.314410
vt 0.029234 0.601846
vt 0.029234 0.273348
vt -0.002016 0.355473
vt -0.002016 0.396535
vt -0.002016 0.642909
vt 0.013609 0.683971
vt 0.013609 0.026974
vt -0.002016 0.068037
vt -0.002016 0.314410
vt -0.002016 0.601846
vt -0.002016 0.273348
vt -0.002016 0.560784
vt -0.002016 0.232286
vt -0.002016 0.519722
vt -0.002016 0.191224
vt -0.002016 0.478660
vt -0.002016 0.150161
vt -0.002016 0.437597
vt -0.002016 0.109099
vt 0.997984 0.191224
vt 0.966734 0.191224
vt 0.966734 0.232286
vt 0.997984 0.232286
vt 0.997984 0.478660
vt 0.966734 0.478660
vt 0.966734 0.519722
vt 0.997984 0.519722
vt 0.997984 0.150161
vt 0.966734 0.150161
vt 0.997984 0.437597
vt 0.966734 0.437597
vt 0.997984 0.109099
vt 0.966734 0.109099
vt 0.997984 0.396535
vt 0.966734 0.396535
vt 0.997984 0.068037
vt 0.966734 0.068037
vt 0.997984 0.355473
vt 0.966734 0.355473
vt 0.997984 0.642909
vt 0.966734 0.642909
vt 0.982359 0.683971
vt 0.982359 0.026974
vt 0.997984 0.314410
vt 0.966734 0.314410
vt 0.997984 0.601846
vt 0.966734 0.601846
vt 0.997984 0.273348
vt 0.966734 0.273348
vt 0.997984 0.560784
vt 0.966734 0.560784
vt 0.935484 0.642909
vt 0.951109 0.683971
vt 0.951109 0.026974
vt 0.935484 0.068037
vt 0.935484 0.314410
vt 0.935484 0.355473
vt 0.935484 0.601846
vt 0.935484 0.273348
vt 0.935484 0.560784
vt 0.935484 0.232286
vt 0.935484 0.519722
vt 0.935484 0.191224
vt 0.935484 0.478660
vt 0.935484 0.150161
vt 0.935484 0.437597
vt 0.935484 0.109099
vt 0.935484 0.396535
vt 0.904234 0.478660
vt 0.904234 0.519722
vt 0.904234 0.150161
vt 0.904234 0.191224
vt 0.904234 0.437597
vt 0.904234 0.109099
vt 0.904234 0.396535
vt 0.904234 0.068037
vt 0.904234 0.355473
vt 0.904234 0.642909
vt 0.919859 0.683971
vt 0.919859 0.026974
vt 0.904234 0.314410
vt 0.904234 0.601846
vt 0.904234 0.273348
vt 0.904234 0.560784
vt 0.904234 0.232286
vt 0.872984 0.314410
vt 0.872984 0.355473
vt 0.872984 0.601846
vt 0.872984 0.642909
vt 0.872984 0.273348
vt 0.872984 0.560784
vt 0.872984 0.232286
vt 0.872984 0.519722
vt 0.872984 0.191224
vt 0.872984 0.478660
vt 0.872984 0.150161
vt 0.872984 0.437597
vt 0.872984 0.109099
vt 0.872984 0.396535
vt 0.872984 0.068037
vt 0.888609 0.683971
vt 0.888609 0.026974
vt 0.841734 0.150161
vt 0.841734 0.191224
vt 0.841734 0.437597
vt 0.841734 0.478660
vt 0.841734 0.109099
vt 0.841734 0.396535
vt 0.841734 0.068037
vt 0.841734 0.355473
vt 0.841734 0.642909
vt 0.857359 0.683971
vt 0.857359 0.026974
vt 0.841734 0.314410
vt 0.841734 0.601846
vt 0.841734 0.273348
vt 0.841734 0.560784
vt 0.841734 0.232286
vt 0.841734 0.519722
vt 0.810484 0.273348
vt 0.810484 0.314410
vt 0.810484 0.560784
vt 0.810484 0.601846
vt 0.810484 0.232286
vt 0.810484 0.519722
vt 0.810484 0.191224
vt 0.810484 0.478660
vt 0.810484 0.150161
vt 0.810484 0.437597
vt 0.810484 0.109099
vt 0.810484 0.396535
vt 0.810484 0.068037
vt 0.810484 0.355473
vt 0.810484 0.642909
vt 0.826109 0.683971
vt 0.826109 0.026974
vt 0.779234 0.109099
vt 0.779234 0.150161
vt 0.779234 0.396535
vt 0.779234 0.437597
vt 0.779234 0.068037
vt 0.779234 0.355473
vt 0.779234 0.642909
vt 0.794859 0.683971
vt 0.794859 0.026974
vt 0.779234 0.314410
vt 0.779234 0.601846
vt 0.779234 0.273348
vt 0.779234 0.560784
vt 0.779234 0.232286
vt 0.779234 0.519722
vt 0.779234 0.191224
vt 0.779234 0.478660
vt 0.763609 0.683971
vt 0.763609 0.026974
s 1
usemtl Material.001
f 478/1/478 16/2/16 15/3/15 5/4/5
f 1/5/1 9/6/9 8/7/8 475/8/475
f 6/9/6 17/10/17 16/2/16 478/1/478
f 476/11/476 10/12/10 9/6/9 1/5/1
f 479/13/479 18/14/18 17/10/17 6/9/6
f 2/15/2 11/16/11 10/12/10 476/11/476
f 480/17/480 19/18/19 18/14/18 479/13/479
f 477/19/477 12/20/12 11/16/11 2/15/2
f 481/21/481 20/22/20 19/18/19 480/17/480
f 3/23/3 13/24/13 12/20/12 477/19/477
f 482/25/482 21/26/21 20/22/20 481/21/481
f 4/27/4 14/28/14 13/24/13 3/23/3
f 474/29/474 7/30/7 82/31/82
f 308/32/308 21/26/21 482/25/482
f 5/4/5 15/3/15 14/28/14 4/27/4
f 475/8/475 8/7/8 7/30/7 474/29/474
f 308/33/308 36/34/36 21/26/21
f 15/3/15 30/35/30 29/36/29 14/28/14
f 8/7/8 23/37/23 22/38/22 7/30/7
f 16/2/16 31/39/31 30/35/30 15/3/15
f 9/6/9 24/40/24 23/37/23 8/7/8
f 17/10/17 32/41/32 31/39/31 16/2/16
f 10/12/10 25/42/25 24/40/24 9/6/9
f 18/14/18 33/43/33 32/41/32 17/10/17
f 11/16/11 26/44/26 25/42/25 10/12/10
f 19/18/19 34/45/34 33/43/33 18/14/18
f 12/20/12 27/46/27 26/44/26 11/16/11
f 20/22/20 35/47/35 34/45/34 19/18/19
f 13/24/13 28/48/28 27/46/27 12/20/12
f 21/26/21 36/34/36 35/47/35 20/22/20
f 14/28/14 29/36/29 28/48/28 13/24/13
f 7/30/7 22/38/22 82/49/82
f 34/45/34 49/50/49 48/51/48 33/43/33
f 27/46/27 42/52/42 41/53/41 26/44/26
f 35/47/35 50/54/50 49/50/49 34/45/34
f 28/48/28 43/55/43 42/52/42 27/46/27
f 36/34/36 51/56/51 50/54/50 35/47/35
f 29/36/29 44/57/44 43/55/43 28/48/28
f 22/38/22 37/58/37 82/59/82
f 308/60/308 51/56/51 36/34/36
f 30/35/30 45/61/45 44/57/44 29/36/29
f 23/37/23 38/62/38 37/58/37 22/38/22
f 31/39/31 46/63/46 45/61/45 30/35/30
f 24/40/24 39/64/39 38/62/38 23/37/23
f 32/41/32 47/65/47 46/63/46 31/39/31
f 25/42/25 40/66/40 39/64/39 24/40/24
f 33/43/33 48/51/48 47/65/47 32/41/32
f 26/44/26 41/53/41 40/66/40 25/42/25
f 38/62/38 53/67/53 52/68/52 37/58/37
f 46/63/46 61/69/61 60/70/60 45/61/45
f 39/64/39 54/71/54 53/67/53 38/62/38
f 47/65/47 62/72/62 61/69/61 46/63/46
f 40/66/40 55/73/55 54/71/54 39/64/39
f 48/51/48 63/74/63 62/72/62 47/65/47
f 41/53/41 56/75/56 55/73/55 40/66/40
f 49/50/49 64/76/64 63/74/63 48/51/48
f 42/52/42 57/77/57 56/75/56 41/53/41
f 50/54/50 65/78/65 64/76/64 49/50/49
f 43/55/43 58/79/58 57/77/57 42/52/42
f 51/56/51 66/80/66 65/78/65 50/54/50
f 44/57/44 59/81/59 58/79/58 43/55/43
f 37/58/37 52/68/52 82/82/82
f 308/83/308 66/80/66 51/56/51
f 45/61/45 60/70/60 59/81/59 44/57/44
f 57/77/57 72/84/72 71/85/71 56/75/56
f 65/78/65 80/86/80 79/87/79 64/76/64
f 58/79/58 73/88/73 72/84/72 57/77/57
f 66/80/66 81/89/81 80/86/80 65/78/65
f 59/81/59 74/90/74 73/88/73 58/79/58
f 52/68/52 67/91/67 82/92/82
f 308/93/308 81/89/81 66/80/66
f 60/70/60 75/94/75 74/90/74 59/81/59
f 53/67/53 68/95/68 67/91/67 52/68/52
f 61/69/61 76/96/76 75/94/75 60/70/60
f 54/71/54 69/97/69 68/95/68 53/67/53
f 62/72/62 77/98/77 76/96/76 61/69/61
f 55/73/55 70/99/70 69/97/69 54/71/54
f 63/74/63 78/100/78 77/98/77 62/72/62
f 56/75/56 71/85/71 70/99/70 55/73/55
f 64/76/64 79/87/79 78/100/78 63/74/63
f 76/96/76 92/101/92 91/102/91 75/94/75
f 69/97/69 85/103/85 84/104/84 68/95/68
f 77/98/77 93/105/93 92/101/92 76/96/76
f 70/99/70 86/106/86 85/103/85 69/97/69
f 78/100/78 94/107/94 93/105/93 77/98/77
f 71/85/71 87/108/87 86/106/86 70/99/70
f 79/87/79 95/109/95 94/107/94 78/100/78
f 72/84/72 88/110/88 87/108/87 71/85/71
f 80/86/80 96/111/96 95/109/95 79/87/79
f 73/88/73 89/112/89 88/110/88 72/84/72
f 81/89/81 97/113/97 96/111/96 80/86/80
f 74/90/74 90/114/90 89/112/89 73/88/73
f 67/91/67 83/115/83 82/116/82
f 308/117/308 97/113/97 81/89/81
f 75/94/75 91/102/91 90/114/90 74/90/74
f 68/95/68 84/104/84 83/115/83 67/91/67
f 96/111/96 111/118/111 110/119/110 95/109/95
f 89/112/89 104/120/104 103/121/103 88/110/88
f 97/113/97 112/122/112 111/118/111 96/111/96
f 90/114/90 105/123/105 104/120/104 89/112/89
f 83/115/83 98/124/98 82/125/82
f 308/126/308 112/122/112 97/113/97
f 91/102/91 106/127/106 105/123/105 90/114/90
f 84/104/84 99/128/99 98/124/98 83/115/83
f 92/101/92 107/129/107 106/127/106 91/102/91
f 85/103/85 100/130/100 99/128/99 84/104/84
f 93/105/93 108/131/108 107/129/107 92/101/92
f 86/106/86 101/132/101 100/130/100 85/103/85
f 94/107/94 109/133/109 108/131/108 93/105/93
f 87/108/87 102/134/102 101/132/101 86/106/86
f 95/109/95 110/119/110 109/133/109 94/107/94
f 88/110/88 103/121/103 102/134/102 87/108/87
f 100/130/100 115/135/115 114/136/114 99/128/99
f 108/131/108 123/137/123 122/138/122 107/129/107
f 101/132/101 116/139/116 115/135/115 100/130/100
f 109/133/109 124/140/124 123/137/123 108/131/108
f 102/134/102 117/141/117 116/139/116 101/132/101
f 110/119/110 125/142/125 124/140/124 109/133/109
f 103/121/103 118/143/118 117/141/117 102/134/102
f 111/118/111 126/144/126 125/142/125 110/119/110
f 104/120/104 119/145/119 118/143/118 103/121/103
f 112/122/112 127/146/127 126/144/126 111/118/111
f 105/123/105 120/147/120 119/145/119 104/120/104
f 98/124/98 113/148/113 82/149/82
f 308/150/308 127/146/127 112/122/112
f 106/127/106 121/151/121 120/147/120 105/123/105
f 99/128/99 114/136/114 113/148/113 98/124/98
f 107/129/107 122/138/122 121/151/121 106/127/106
f 119/145/119 134/152/134 133/153/133 118/143/118
f 127/146/127 142/154/142 141/155/141 126/144/126
f 120/147/120 135/156/135 134/152/134 119/145/119
f 113/148/113 128/157/128 82/158/82
f 308/159/308 142/154/142 127/146/127
f 121/151/121 136/160/136 135/156/135 120/147/120
f 114/136/114 129/161/129 128/157/128 113/148/113
f 122/138/122 137/162/137 136/160/136 121/151/121
f 115/135/115 130/163/130 129/161/129 114/136/114
f 123/137/123 138/164/138 137/162/137 122/138/122
f 116/139/116 131/165/131 130/163/130 115/135/115
f 124/140/124 139/166/139 138/164/138 123/137/123
f 117/141/117 132/167/132 131/165/131 116/139/116
f 125/142/125 140/168/140 139/166/139 124/140/124
f 118/143/118 133/153/133 132/167/132 117/141/117
f 126/144/126 141/155/141 140/168/140 125/142/125
f 138/164/138 153/169/153 152/170/152 137/162/137
f 131/165/131 146/171/146 145/172/145 130/163/130
f 139/166/139 154/173/154 153/169/153 138/164/138
f 132/167/132 147/174/147 146/171/146 131/165/131
f 140/168/140 155/175/155 154/173/154 139/166/139
f 133/153/133 148/176/148 147/174/147 132/167/132
f 141/155/141 156/177/156 155/175/155 140/168/140
f 134/152/134 149/178/149 148/176/148 133/153/133
f 142/154/142 157/179/157 156/177/156 141/155/141
f 135/156/135 150/180/150 149/178/149 134/152/134
f 128/157/128 143/181/143 82/182/82
f 308/183/308 157/179/157 142/154/142
f 136/160/136 151/184/151 150/180/150 135/156/135
f 129/161/129 144/185/144 143/181/143 128/157/128
f 137/162/137 152/170/152 151/184/151 136/160/136
f 130/163/130 145/172/145 144/185/144 129/161/129
f 157/179/157 172/186/172 171/187/171 156/177/156
f 150/180/150 165/188/165 164/189/164 149/178/149
f 143/181/143 158/190/158 82/191/82
f 308/192/308 172/186/172 157/179/157
f 151/184/151 166/193/166 165/188/165 150/180/150
f 144/185/144 159/194/159 158/190/158 143/181/143
f 152/170/152 167/195/167 166/193/166 151/184/151
f 145/172/145 160/196/160 159/194/159 144/185/144
f 153/169/153 168/197/168 167/195/167 152/170/152
f 146/171/146 161/198/161 160/196/160 145/172/145
f 154/173/154 169/199/169 168/197/168 153/169/153
f 147/174/147 162/200/162 161/198/161 146/171/146
f 155/175/155 170/201/170 169/199/169 154/173/154
f 148/176/148 163/202/163 162/200/162 147/174/147
f 156/177/156 171/187/171 170/201/170 155/175/155
f 149/178/149 164/189/164 163/202/163 148/176/148
f 169/199/169 184/203/184 183/204/183 168/197/168
f 162/200/162 177/205/177 176/206/176 161/198/161
f 170/201/170 185/207/185 184/203/184 169/199/169
f 163/202/163 178/208/178 177/205/177 162/200/162
f 171/187/171 186/209/186 185/207/185 170/201/170
f 164/189/164 179/210/179 178/208/178 163/202/163
f 172/186/172 187/211/187 186/209/186 171/187/171
f 165/188/165 180/212/180 179/210/179 164/189/164
f 158/190/158 173/213/173 82/214/82
f 308/215/308 187/211/187 172/186/172
f 166/193/166 181/216/181 180/212/180 165/188/165
f 159/194/159 174/217/174 173/213/173 158/190/158
f 167/195/167 182/218/182 181/216/181 166/193/166
f 160/196/160 175/219/175 174/217/174 159/194/159
f 168/197/168 183/204/183 182/218/182 167/195/167
f 161/198/161 176/206/176 175/219/175 160/196/160
f 173/213/173 188/220/188 82/221/82
f 308/222/308 202/223/202 187/211/187
f 181/216/181 196/224/196 195/225/195 180/212/180
f 174/217/174 189/226/189 188/220/188 173/213/173
f 182/218/182 197/227/197 196/224/196 181/216/181
f 175/219/175 190/228/190 189/226/189 174/217/174
f 183/204/183 198/229/198 197/227/197 182/218/182
f 176/206/176 191/230/191 190/228/190 175/219/175
f 184/203/184 199/231/199 198/229/198 183/204/183
f 177/205/177 192/232/192 191/230/191 176/206/176
f 185/207/185 200/233/200 199/231/199 184/203/184
f 178/208/178 193/234/193 192/232/192 177/205/177
f 186/209/186 201/235/201 200/233/200 185/207/185
f 179/210/179 194/236/194 193/234/193 178/208/178
f 187/211/187 202/223/202 201/235/201 186/209/186
f 180/212/180 195/225/195 194/236/194 179/210/179
f 192/232/192 207/237/207 206/238/206 191/230/191
f 200/233/200 215/239/215 214/240/214 199/231/199
f 193/234/193 208/241/208 207/237/207 192/232/192
f 201/235/201 216/242/216 215/239/215 200/233/200
f 194/236/194 209/243/209 208/241/208 193/234/193
f 202/223/202 217/244/217 216/242/216 201/235/201
f 195/225/195 210/245/210 209/243/209 194/236/194
f 188/220/188 203/246/203 82/247/82
f 308/248/308 217/244/217 202/223/202
f 196/224/196 211/249/211 210/245/210 195/225/195
f 189/226/189 204/250/204 203/246/203 188/220/188
f 197/227/197 212/251/212 211/249/211 196/224/196
f 190/228/190 205/252/205 204/250/204 189/226/189
f 198/229/198 213/253/213 212/251/212 197/227/197
f 191/230/191 206/238/206 205/252/205 190/228/190
f 199/231/199 214/240/214 213/253/213 198/229/198
f 211/249/211 226/254/226 225/255/225 210/245/210
f 204/250/204 219/256/219 218/257/218 203/246/203
f 212/251/212 227/258/227 226/254/226 211/249/211
f 205/252/205 220/259/220 219/256/219 204/250/204
f 213/253/213 228/260/228 227/258/227 212/251/212
f 206/238/206 221/261/221 220/259/220 205/252/205
f 214/240/214 229/262/229 228/260/228 213/253/213
f 207/237/207 222/263/222 221/261/221 206/238/206
f 215/239/215 230/264/230 229/262/229 214/240/214
f 208/241/208 223/265/223 222/263/222 207/237/207
f 216/242/216 231/266/231 230/264/230 215/239/215
f 209/243/209 224/267/224 223/265/223 208/241/208
f 217/244/217 232/268/232 231/266/231 216/242/216
f 210/245/210 225/255/225 224/267/224 209/243/209
f 203/246/203 218/257/218 82/269/82
f 308/270/308 232/268/232 217/244/217
f 230/264/230 245/271/245 244/272/244 229/262/229
f 223/265/223 238/273/238 237/274/237 222/263/222
f 231/266/231 246/275/246 245/271/245 230/264/230
f 224/267/224 239/276/239 238/273/238 223/265/223
f 232/268/232 247/277/247 246/275/246 231/266/231
f 225/255/225 240/278/240 239/276/239 224/267/224
f 218/257/218 233/279/233 82/280/82
f 308/281/308 247/277/247 232/268/232
f 226/254/226 241/282/241 240/278/240 225/255/225
f 219/256/219 234/283/234 233/279/233 218/257/218
f 227/258/227 242/284/242 241/282/241 226/254/226
f 220/259/220 235/285/235 234/283/234 219/256/219
f 228/260/228 243/286/243 242/284/242 227/258/227
f 221/261/221 236/287/236 235/285/235 220/259/220
f 229/262/229 244/272/244 243/286/243 228/260/228
f 222/263/222 237/274/237 236/287/236 221/261/221
f 234/283/234 249/288/249 248/289/248 233/279/233
f 242/284/242 257/290/257 256/291/256 241/282/241
f 235/285/235 250/292/250 249/288/249 234/283/234
f 243/286/243 258/293/258 257/290/257 242/284/242
f 236/287/236 251/294/251 250/292/250 235/285/235
f 244/272/244 259/295/259 258/293/258 243/286/243
f 237/274/237 252/296/252 251/294/251 236/287/236
f 245/271/245 260/297/260 259/295/259 244/272/244
f 238/273/238 253/298/253 252/296/252 237/274/237
f 246/275/246 261/299/261 260/297/260 245/271/245
f 239/276/239 254/300/254 253/298/253 238/273/238
f 247/277/247 262/301/262 261/299/261 246/275/246
f 240/278/240 255/302/255 254/300/254 239/276/239
f 233/279/233 248/289/248 82/303/82
f 308/304/308 262/301/262 247/277/247
f 241/282/241 256/291/256 255/302/255 240/278/240
f 253/298/253 268/305/268 267/306/267 252/296/252
f 261/299/261 276/307/276 275/308/275 260/297/260
f 254/300/254 269/309/269 268/305/268 253/298/253
f 262/301/262 277/310/277 276/307/276 261/299/261
f 255/302/255 270/311/270 269/309/269 254/300/254
f 248/289/248 263/312/263 82/313/82
f 308/314/308 277/310/277 262/301/262
f 256/291/256 271/315/271 270/311/270 255/302/255
f 249/288/249 264/316/264 263/312/263 248/289/248
f 257/290/257 272/317/272 271/315/271 256/291/256
f 250/292/250 265/318/265 264/316/264 249/288/249
f 258/293/258 273/319/273 272/317/272 257/290/257
f 251/294/251 266/320/266 265/318/265 250/292/250
f 259/295/259 274/321/274 273/319/273 258/293/258
f 252/296/252 267/306/267 266/320/266 251/294/251
f 260/297/260 275/308/275 274/321/274 259/295/259
f 272/317/272 287/322/287 286/323/286 271/315/271
f 265/318/265 280/324/280 279/325/279 264/316/264
f 273/319/273 288/326/288 287/322/287 272/317/272
f 266/320/266 281/327/281 280/324/280 265/318/265
f 274/321/274 289/328/289 288/326/288 273/319/273
f 267/306/267 282/329/282 281/327/281 266/320/266
f 275/308/275 290/330/290 289/328/289 274/321/274
f 268/305/268 283/331/283 282/329/282 267/306/267
f 276/307/276 291/332/291 290/330/290 275/308/275
f 269/309/269 284/333/284 283/331/283 268/305/268
f 277/310/277 292/334/292 291/332/291 276/307/276
f 270/311/270 285/335/285 284/333/284 269/309/269
f 263/312/263 278/336/278 82/337/82
f 308/338/308 292/334/292 277/310/277
f 271/315/271 286/323/286 285/335/285 270/311/270
f 264/316/264 279/325/279 278/336/278 263/312/263
f 291/332/291 306/339/306 305/340/305 290/330/290
f 284/333/284 299/341/299 298/342/298 283/331/283
f 292/334/292 307/343/307 306/339/306 291/332/291
f 285/335/285 300/344/300 299/341/299 284/333/284
f 278/336/278 293/345/293 82/346/82
f 308/347/308 307/343/307 292/334/292
f 286/323/286 301/348/301 300/344/300 285/335/285
f 279/325/279 294/349/294 293/345/293 278/336/278
f 287/322/287 302/350/302 301/348/301 286/323/286
f 280/324/280 295/351/295 294/349/294 279/325/279
f 288/326/288 303/352/303 302/350/302 287/322/287
f 281/327/281 296/353/296 295/351/295 280/324/280
f 289/328/289 304/354/304 303/352/303 288/326/288
f 282/329/282 297/355/297 296/353/296 281/327/281
f 290/330/290 305/340/305 304/354/304 289/328/289
f 283/331/283 298/342/298 297/355/297 282/329/282
f 303/352/303 319/356/319 318/357/318 302/350/302
f 296/353/296 312/358/312 311/359/311 295/351/295
f 304/354/304 320/360/320 319/356/319 303/352/303
f 297/355/297 313/361/313 312/358/312 296/353/296
f 305/340/305 321/362/321 320/360/320 304/354/304
f 298/342/298 314/363/314 313/361/313 297/355/297
f 306/339/306 322/364/322 321/362/321 305/340/305
f 299/341/299 315/365/315 314/363/314 298/342/298
f 307/343/307 323/366/323 322/364/322 306/339/306
f 300/344/300 316/367/316 315/365/315 299/341/299
f 293/345/293 309/368/309 82/369/82
f 308/370/308 323/366/323 307/343/307
f 301/348/301 317/371/317 316/367/316 300/344/300
f 294/349/294 310/372/310 309/368/309 293/345/293
f 302/350/302 318/357/318 317/371/317 301/348/301
f 295/351/295 311/359/311 310/372/310 294/349/294
f 323/366/323 338/373/338 337/374/337 322/364/322
f 316/367/316 331/375/331 330/376/330 315/365/315
f 309/368/309 324/377/324 82/378/82
f 308/379/308 338/373/338 323/366/323
f 317/371/317 332/380/332 331/375/331 316/367/316
f 310/372/310 325/381/325 324/377/324 309/368/309
f 318/357/318 333/382/333 332/380/332 317/371/317
f 311/359/311 326/383/326 325/381/325 310/372/310
f 319/356/319 334/384/334 333/382/333 318/357/318
f 312/358/312 327/385/327 326/383/326 311/359/311
f 320/360/320 335/386/335 334/384/334 319/356/319
f 313/361/313 328/387/328 327/385/327 312/358/312
f 321/362/321 336/388/336 335/386/335 320/360/320
f 314/363/314 329/389/329 328/387/328 313/361/313
f 322/364/322 337/374/337 336/388/336 321/362/321
f 315/365/315 330/376/330 329/389/329 314/363/314
f 327/385/327 342/390/342 341/391/341 326/383/326
f 335/386/335 350/392/350 349/393/349 334/384/334
f 328/387/328 343/394/343 342/390/342 327/385/327
f 336/388/336 351/395/351 350/392/350 335/386/335
f 329/389/329 344/396/344 343/394/343 328/387/328
f 337/374/337 352/397/352 351/395/351 336/388/336
f 330/376/330 345/398/345 344/396/344 329/389/329
f 338/373/338 353/399/353 352/397/352 337/374/337
f 331/375/331 346/400/346 345/398/345 330/376/330
f 324/377/324 339/401/339 82/402/82
f 308/403/308 353/399/353 338/373/338
f 332/380/332 347/404/347 346/400/346 331/375/331
f 325/381/325 340/405/340 339/401/339 324/377/324
f 333/382/333 348/406/348 347/404/347 332/380/332
f 326/383/326 341/391/341 340/405/340 325/381/325
f 334/384/334 349/393/349 348/406/348 333/382/333
f 346/400/346 361/407/361 360/408/360 345/398/345
f 339/401/339 354/409/354 82/410/82
f 308/411/308 368/412/368 353/399/353
f 347/404/347 362/413/362 361/407/361 346/400/346
f 340/405/340 355/414/355 354/409/354 339/401/339
f 348/406/348 363/415/363 362/413/362 347/404/347
f 341/391/341 356/416/356 355/414/355 340/405/340
f 349/393/349 364/417/364 363/415/363 348/406/348
f 342/390/342 357/418/357 356/416/356 341/391/341
f 350/392/350 365/419/365 364/417/364 349/393/349
f 343/394/343 358/420/358 357/418/357 342/390/342
f 351/395/351 366/421/366 365/419/365 350/392/350
f 344/396/344 359/422/359 358/420/358 343/394/343
f 352/397/352 367/423/367 366/421/366 351/395/351
f 345/398/345 360/408/360 359/422/359 344/396/344
f 353/399/353 368/412/368 367/423/367 352/397/352
f 365/424/365 380/425/380 379/426/379 364/427/364
f 358/428/358 373/429/373 372/430/372 357/431/357
f 366/432/366 381/433/381 380/425/380 365/424/365
f 359/434/359 374/435/374 373/429/373 358/428/358
f 367/436/367 382/437/382 381/433/381 366/432/366
f 360/438/360 375/439/375 374/435/374 359/434/359
f 368/440/368 383/441/383 382/437/382 367/436/367
f 361/442/361 376/443/376 375/439/375 360/438/360
f 354/444/354 369/445/369 82/446/82
f 308/447/308 383/441/383 368/440/368
f 362/448/362 377/449/377 376/443/376 361/442/361
f 355/450/355 370/451/370 369/445/369 354/444/354
f 363/452/363 378/453/378 377/449/377 362/448/362
f 356/454/356 371/455/371 370/451/370 355/450/355
f 364/427/364 379/426/379 378/453/378 363/452/363
f 357/431/357 372/430/372 371/455/371 356/454/356
f 369/445/369 384/456/384 82/457/82
f 308/458/308 398/459/398 383/441/383
f 377/449/377 392/460/392 391/461/391 376/443/376
f 370/451/370 385/462/385 384/456/384 369/445/369
f 378/453/378 393/463/393 392/460/392 377/449/377
f 371/455/371 386/464/386 385/462/385 370/451/370
f 379/426/379 394/465/394 393/463/393 378/453/378
f 372/430/372 387/466/387 386/464/386 371/455/371
f 380/425/380 395/467/395 394/465/394 379/426/379
f 373/429/373 388/468/388 387/466/387 372/430/372
f 381/433/381 396/469/396 395/467/395 380/425/380
f 374/435/374 389/470/389 388/468/388 373/429/373
f 382/437/382 397/471/397 396/469/396 381/433/381
f 375/439/375 390/472/390 389/470/389 374/435/374
f 383/441/383 398/459/398 397/471/397 382/437/382
f 376/443/376 391/461/391 390/472/390 375/439/375
f 388/468/388 403/473/403 402/474/402 387/466/387
f 396/469/396 411/475/411 410/476/410 395/467/395
f 389/470/389 404/477/404 403/473/403 388/468/388
f 397/471/397 412/478/412 411/475/411 396/469/396
f 390/472/390 405/479/405 404/477/404 389/470/389
f 398/459/398 413/480/413 412/478/412 397/471/397
f 391/461/391 406/481/406 405/479/405 390/472/390
f 384/456/384 399/482/399 82/483/82
f 308/484/308 413/480/413 398/459/398
f 392/460/392 407/485/407 406/481/406 391/461/391
f 385/462/385 400/486/400 399/482/399 384/456/384
f 393/463/393 408/487/408 407/485/407 392/460/392
f 386/464/386 401/488/401 400/486/400 385/462/385
f 394/465/394 409/489/409 408/487/408 393/463/393
f 387/466/387 402/474/402 401/488/401 386/464/386
f 395/467/395 410/476/410 409/489/409 394/465/394
f 407/485/407 422/490/422 421/491/421 406/481/406
f 400/486/400 415/492/415 414/493/414 399/482/399
f 408/487/408 423/494/423 422/490/422 407/485/407
f 401/488/401 416/495/416 415/492/415 400/486/400
f 409/489/409 424/496/424 423/494/423 408/487/408
f 402/474/402 417/497/417 416/495/416 401/488/401
f 410/476/410 425/498/425 424/496/424 409/489/409
f 403/473/403 418/499/418 417/497/417 402/474/402
f 411/475/411 426/500/426 425/498/425 410/476/410
f 404/477/404 419/501/419 418/499/418 403/473/403
f 412/478/412 427/502/427 426/500/426 411/475/411
f 405/479/405 420/503/420 419/501/419 404/477/404
f 413/480/413 428/504/428 427/502/427 412/478/412
f 406/481/406 421/491/421 420/503/420 405/479/405
f 399/482/399 414/493/414 82/505/82
f 308/506/308 428/504/428 413/480/413
f 426/500/426 441/507/441 440/508/440 425/498/425
f 419/501/419 434/509/434 433/510/433 418/499/418
f 427/502/427 442/511/442 441/507/441 426/500/426
f 420/503/420 435/512/435 434/509/434 419/501/419
f 428/504/428 443/513/443 442/511/442 427/502/427
f 421/491/421 436/514/436 435/512/435 420/503/420
f 414/493/414 429/515/429 82/516/82
f 308/517/308 443/513/443 428/504/428
f 422/490/422 437/518/437 436/514/436 421/491/421
f 415/492/415 430/519/430 429/515/429 414/493/414
f 423/494/423 438/520/438 437/518/437 422/490/422
f 416/495/416 431/521/431 430/519/430 415/492/415
f 424/496/424 439/522/439 438/520/438 423/494/423
f 417/497/417 432/523/432 431/521/431 416/495/416
f 425/498/425 440/508/440 439/522/439 424/496/424
f 418/499/418 433/510/433 432/523/432 417/497/417
f 438/520/438 453/524/453 452/525/452 437/518/437
f 431/521/431 446/526/446 445/527/445 430/519/430
f 439/522/439 454/528/454 453/524/453 438/520/438
f 432/523/432 447/529/447 446/526/446 431/521/431
f 440/508/440 455/530/455 454/528/454 439/522/439
f 433/510/433 448/531/448 447/529/447 432/523/432
f 441/507/441 456/532/456 455/530/455 440/508/440
f 434/509/434 449/533/449 448/531/448 433/510/433
f 442/511/442 457/534/457 456/532/456 441/507/441
f 435/512/435 450/535/450 449/533/449 434/509/434
f 443/513/443 458/536/458 457/534/457 442/511/442
f 436/514/436 451/537/451 450/535/450 435/512/435
f 429/515/429 444/538/444 82/539/82
f 308/540/308 458/536/458 443/513/443
f 437/518/437 452/525/452 451/537/451 436/514/436
f 430/519/430 445/527/445 444/538/444 429/515/429
f 457/534/457 472/541/472 471/542/471 456/532/456
f 450/535/450 465/543/465 464/544/464 449/533/449
f 458/536/458 473/545/473 472/541/472 457/534/457
f 451/537/451 466/546/466 465/543/465 450/535/450
f 444/538/444 459/547/459 82/548/82
f 308/549/308 473/545/473 458/536/458
f 452/525/452 467/550/467 466/546/466 451/537/451
f 445/527/445 460/551/460 459/547/459 444/538/444
f 453/524/453 468/552/468 467/550/467 452/525/452
f 446/526/446 461/553/461 460/551/460 445/527/445
f 454/528/454 469/554/469 468/552/468 453/524/453
f 447/529/447 462/555/462 461/553/461 446/526/446
f 455/530/455 470/556/470 469/554/469 454/528/454
f 448/531/448 463/557/463 462/555/462 447/529/447
f 456/532/456 471/542/471 470/556/470 455/530/455
f 449/533/449 464/544/464 463/557/463 448/531/448
f 461/553/461 1/5/1 475/8/475 460/551/460
f 469/554/469 6/9/6 478/1/478 468/552/468
f 462/555/462 476/11/476 1/5/1 461/553/461
f 470/556/470 479/13/479 6/9/6 469/554/469
f 463/557/463 2/15/2 476/11/476 462/555/462
f 471/542/471 480/17/480 479/13/479 470/556/470
f 464/544/464 477/19/477 2/15/2 463/557/463
f 472/541/472 481/21/481 480/17/480 471/542/471
f 465/543/465 3/23/3 477/19/477 464/544/464
f 473/545/473 482/25/482 481/21/481 472/541/472
f 466/546/466 4/27/4 3/23/3 465/543/465
f 459/547/459 474/29/474 82/558/82
f 308/559/308 482/25/482 473/545/473
f 467/550/467 5/4/5 4/27/4 466/546/466
f 460/551/460 475/8/475 474/29/474 459/547/459
f 468/552/468 478/1/478 5/4/5 467/550/467
